<svg height="48" viewBox="0 0 48 48" width="48" xmlns="http://www.w3.org/2000/svg" xmlns:xlink="http://www.w3.org/1999/xlink"><defs><path id="a" d="m19.4043042 12c4.9042187 2.5706121 9.1075224 6.79582 12.1572138 12.2165067l.438482.7785029-.438482.7796119c-3.0507849 5.4240136-7.255182 9.6525485-12.1572138 12.2253785l-1.4247931-2.7924078c4.1355084-2.1702708 7.7297486-5.6901684 10.4371835-10.2125826-2.705248-4.5168693-6.2994881-8.0345489-10.4349966-10.2037108zm-1.2173616 10.7818213c1.2071923 0 2.1869426.9936447 2.1869426 2.2179569s-.9797503 2.2179569-2.1869426 2.2179569-2.1869426-.9936447-2.1869426-2.2179569.9797503-2.2179569 2.1869426-2.2179569z"/><mask id="b" fill="#fff"><use fill="#fff" fill-rule="evenodd" xlink:href="#a"/></mask></defs><g fill="none" fill-rule="evenodd" transform="translate(0 -1)"><path d="m0 1h48v48h-48z"/><g fill="#ef3340"><use xlink:href="#a"/><g mask="url(#b)"><path d="m0 0h48v48h-48z" transform="translate(0 1)"/></g></g></g></svg>