<svg height="48" viewBox="0 0 48 48" width="48" xmlns="http://www.w3.org/2000/svg"><path d="m39.452 18.2368005c-.083.533-.364 1.444-1.312 1.551l-.165 1.854c.633.189 1.084 1.078 1.075 2.115-.009.844-.348 1.838-1.272 2.092l-.264 1.714c1.053.682 1.212 2.02 1.01 3.045-.198 1.005-.766 1.814-1.351 1.923l-.367 1.714c.491.342.839 1.596.57 2.763-.158.686-.57 1.539-1.637 1.705-3.067.474-16.801.397-19.614-.939-1.569-.745-3.71-2.363-4.54-3.011v-14.708c1.753-.628 9.012-8.389 9.741-12.69099995.221-1.304.338-2.389.431-3.261.101-.939.216-2.004.403-2.19.448-.088 1.345.238 2.296 1.165 1.012.987 1.736 2.305 1.987 3.615.546 2.85-.854 6.75599995-1.172 7.22799995l.759 1.567c5.451-.213 11.599-.249 12.443.057.708.316 1.156 1.548.979 2.692m-30.9 19.979h-5.519c-.625 0-1.133-.507-1.133-1.132v-19.147c0-.625.508-1.134 1.133-1.134h5.519c.625 0 1.132.509 1.132 1.134v16.95l-.385.477.385.312v1.408c0 .625-.507 1.132-1.132 1.132m30.696-24.406c-1.208-.541-7.776-.411-11.767-.276.646-1.801 1.304-4.71499995.827-7.19799995-.321-1.683-1.242-3.367-2.525-4.618-1.326-1.293-2.772-1.9-3.981-1.67-1.552.296-1.712 1.789-1.934 3.852-.091.847-.204 1.9-.415 3.147-.537 3.16499995-5.838 9.13199995-7.877 10.79999995-.049-1.63-1.382-2.944-3.024-2.944h-5.519c-1.673 0-3.033 1.361-3.033 3.034v19.147c0 1.673 1.36 3.033 3.033 3.033h5.519c1.653 0 2.996-1.33 3.027-2.976 1.074.786 2.522 1.776 3.731 2.35 2.157 1.024 8.835 1.374 14.135 1.374 2.985 0 5.531-.111 6.587-.275 1.627-.253 2.792-1.404 3.195-3.155.297-1.287.121-2.652-.406-3.651.759-.611 1.33-1.606 1.567-2.808.247-1.249.122-2.811-.774-4.013.825-.727 1.321-1.863 1.335-3.187.012-1.113-.31-2.114-.868-2.846.645-.555 1.09-1.385 1.248-2.402.267-1.717-.372-3.954-2.081-4.718" fill="#ef3340" transform="translate(1 4)"/></svg>