<svg height="34" viewBox="0 0 92 34" width="92" xmlns="http://www.w3.org/2000/svg"><g fill="none" fill-rule="evenodd" transform="translate(-3 -3)"><path d="m38.433877 36.5293913 1.4457505-.3395652 1.4211806-.3213044 1.3901447-.2960869 1.3664368-.2782609 1.3354011-.2530435 1.3108311-.2282608 1.2741915-.216087 1.2375521-.1917391 1.2065164-.1791305 1.1698768-.1604347 1.1332374-.1417392 1.0965979-.1234782 1.0539236-.1113044 1.0103874-.0991304.9737479-.086087.92547-.0743478.8815026-.0678261.8332248-.0491304.7840847-.0434783.7353758-.0369565.6858047-.0247826.6310611-.0186957.5758863-.0121739.5267463-.0121739h.875899l.6375268.006087.3918269.0060869.1344884.0065218h.3801884.3366521.3491526.3306174.3370832.3125131.3125132.0185352.2875121.2819085.2758736.024139l.2573384.0056521h.2448379.02457l.2267337.0065218h.2206989.02457.220699.0056037l.1840594.0060869h.1711279.0370706l.1534547.006087.1405232.0060869h.0064658.1344884.0125005.1224189.0060348.1043147.0120695l.0918142.0065218h.0185353.0672442l14.94675-.0926087 8.3615589-26.53869566-14.9407152-.03739131-.1530237.00608696-.4470016.00652174-.7172716.02478261-.9491779.03695652-.557351.03086957-.6064911.03695652-.6491652.03695652-.6987364.04956522-.7349447.06173913-.7715842.06782608-.80262.07391305-.826759.09260869-.8638294.09913044-.875899.11086956-.9004689.12347826-.9190042.13608696-.925039.14826087-.9371084.16652174-.9435742.17913043-.9431432.19739131-.9496089.21608696-.9371084.22869565-.9310737.24695652-.9185732.26565217-.9069347.28391305-.8879684.30869565-.8638295.32739129-.8452942.3456522 2.16216-7.03913045-.146989.03695652-.8211552.19130435h-.024139l-.8086547.18565218h-.0125005l-.7961543.16652173-.0060347.00608696-.7901195.16695652h-.0120694l-.7784811.16043479-.0120695.00608695-.7595147.14826087h-.0120695l-.7478763.14782609h-.0181042l-.7349447.14217391h-.0125006l-.7164094.12956522-.0125006.00652174-.7168405.12956522h-.0185353l-.6978742.1173913h-.0060347l-.6862358.1173913h-.0181042l-.6741663.11086957-.6552.10521739h-.0250011l-.6426994.0926087h-.0125006l-.63063.09260869-.6189915.08652174-.0185353.00608696-.60606.08h-.0064658l-.5879558.07434782h-.0120695l-.5758863.07391305h-.0120695l-.557351.06782608h-.0185353l-.5452815.06173913-.5267464.05565218h-.0060347l-.5086421.06173913h-.0366395l-.4901068.04956522-.4780374.04304347-.02457.00652174-.4655368.03695653h-.0181042l-.4470016.03695652-.4288974.03695652-.02457.00652174-.4163968.03043478h-.0064658l-.4043274.02478261h-.0060347l-.3857921.03086956h-.0125006l-.3672568.02478261h-.0120695l-.3495837.01826087h-.0120694l-.3306174.01869566h-.0125005l-.3125132.01260869-.2939779.01826087h-.0181042l-.2758737.0126087h-.0185352l-.2633732.01217391h-.0181042l-.2392342.00608696-.2202679.00652173-.2081984.00608696h-.02457l-.1900942.00608696h-.1775937-.1284537l-.4409669.00608695h-.12285-.0060347l-23.1733895.06173913-8.5818268 26.55739127 14.5911316-.0126087h.5633858l.5513163-.0060869.5513163-.0121739.5513163-.0121739.5452816-.0186957.5452816-.0247826.5388158-.0247826.3922579-.0243478 1.1086673-.0373913 1.0780627-.0556522 1.0478889-.0673913 1.0103874-.0869565.9802137-.0986957.9496089-.1113043.9185732-.1230435.8823647-.13.8513289-.1417391.8146895-.1482609.7840848-.1604348.7474452-.1608696.7168405-.1665217.67977-.1669565.6491653-.1726087.6064911-.1730435.5758863-.1669565.5448505-.166087.5026074-.1669565.4715715-.1604348.4288974-.1547826.3982926-.1482609.3616532-.1417391.3241516-.13.5332121-.2217391.3857921-.1791305.2267337-.1113043.0797447-.0369565z" fill="#ef3340"/><path d="m50.8998246 20.4629565h3.0603508v-3.6308695h-3.0603508zm-3.8847544-.0004348h3.0784035v-3.6182608h-3.0784035zm-27.4442983-.7282608.0060176-.1543479.0124649-.1608695.0180526-.1543478.0245-.1478261.0365351-.1543479.0429825-.1421739.049-.1421739.0485701-.1417391.0614649-.136087.0670527-.1356521.0790877-.1295653.0795175-.1234782.0795176-.1239131.0915526-.1169565.0975702-.1113043.1040175-.1047826.1040176-.1052174.1100351-.0926087.1160526-.0926087.1220702-.0865218.1220702-.0804348.1280877-.073913.1285175-.0678261.1345351-.0617391.1401228-.0556522.1405526-.0491304.1465702-.0434783.1465702-.0308695.1530175-.0308696.1525878-.0186957.1525877-.0121739.1590351-.0060869.1586052.0060869.1525877.0121739.1530176.0186957.1525877.0308696.1465702.0308695.1465702.0434783.1405526.0491304.1405526.0556522.1341053.0617391.1285175.0678261.1280877.073913.1285176.0804348.1160526.0865218.1160527.0926087.110035.0926087.1096053.1052174.098.1047826.0975702.1113043.0915526.1169565.0855351.1239131.0735.1234782.0795175.1295653.0670527.1356521.0610351.136087.0550175.1417391.0429825.1421739.0425526.1421739.0365351.1543479.0245.1478261.0184824.1543478.0120351.1608695.0060176.1543479-.0060176.1604348-.0120351.1543478-.0184824.1604348-.0245.1482608-.0365351.1482609-.0425526.1482609-.0429825.1417391-.0550175.1421739-.0610351.1356522-.0670527.1360869-.0795175.1295653-.0735.123913-.0855351.1169565-.0915526.1173913-.0975702.1108696-.098.1113043-.1096053.0986957-.110035.0991304-.1160527.0926087-.1160526.086087-.1285176.0804348-.1280877.073913-.1285175.0682609-.1341053.0617391-.1405526.0556522-.1405526.0491304-.1465702.0369565-.1465702.0369566-.1525877.0252174-.1530176.0243478-.1525877.0126087h-.1586052-.1590351l-.1525877-.0126087-.1525878-.0243478-.1530175-.0252174-.1465702-.0369566-.1465702-.0369565-.1405526-.0491304-.1401228-.0556522-.1345351-.0617391-.1285175-.0682609-.1280877-.073913-.1220702-.0804348-.1220702-.086087-.1160526-.0926087-.1100351-.0991304-.1040176-.0986957-.1040175-.1113043-.0975702-.1108696-.0915526-.1173913-.0795176-.1169565-.0795175-.123913-.0790877-.1295653-.0670527-.1360869-.0614649-.1356522-.0485701-.1421739-.049-.1417391-.0429825-.1482609-.0365351-.1482609-.0245-.1482608-.0180526-.1604348-.0124649-.1543478zm-3.1639386-.0121739.0120351.3208695.0184825.3147826.0425526.3086957.0550176.3026087.0674824.3026087.0855351.2965217.0975702.2839131.1100351.283913.1280877.2782609.1345351.2652174.1525877.2595652.1590351.2530435.1710701.2408695.1891229.2343478.1955701.2286957.2015878.216087.2196403.203913.2260877.1913043.2321053.1852174.2445702.1726087.2501579.1669566.2626228.1482608.2690701.1356522.2746579.1234783.2811053.1113043.2931403.0986957.2931404.08.2995877.0743478.3051755.0495652.3116228.0430435.3172105.0247826.3180702.0060869.3236579-.0060869.3176403-.0247826.3051754-.0430435.3116229-.0495652.2991578-.0743478.2935702-.08.2931404-.0986957.2806754-.1113043.2750877-.1234783.2686404-.1356522.2566052-.1482608.2566053-.1669566.2441404-.1726087.2321052-.1852174.2260877-.1913043.2140527-.203913.2076052-.216087.1955702-.2286957.1831053-.2343478.1770877-.2408695.1586053-.2530435.1530175-.2595652.1341053-.2652174.1285175-.2782609.1100351-.283913.0975702-.2839131.0855351-.2965217.0670526-.3026087.0550175-.3026087.0365351-.3086957.0245-.3147826.0124649-.3208695-.0124649-.3213044-.0245-.3147826-.0365351-.3086957-.0550175-.3091304-.0670526-.2960869-.0855351-.2965218-.0975702-.29-.1100351-.2782609-.1285175-.2773913-.1341053-.2656521-.1530175-.2595652-.1586053-.2530435-.1770877-.2469565-.1831053-.2347827-.1955702-.2221739-.2076052-.2160869-.2140527-.2039131-.2260877-.1973913-.2321052-.1852174-.2441404-.1730434-.2566053-.1604348-.2566052-.1482609-.2686404-.136087-.2750877-.1230434-.2806754-.1113044-.2931404-.0986956-.2935702-.0865218-.2991578-.0678261-.3116229-.0556521-.3051754-.0373913-.3176403-.0243479-.3236579-.0060869-.3180702.0060869-.3172105.0243479-.3116228.0373913-.3051755.0556521-.2995877.0678261-.2931404.0865218-.2931403.0986956-.2811053.1113044-.2746579.1230434-.2690701.136087-.2626228.1482609-.2501579.1604348-.2445702.1730434-.2321053.1852174-.2260877.1973913-.2196403.2039131-.2015878.2160869-.1955701.2221739-.1891229.2347827-.1710701.2469565-.1590351.2530435-.1525877.2595652-.1345351.2656521-.1280877.2773913-.1100351.2782609-.0975702.29-.0855351.2965218-.0674824.2960869-.0550176.3091304-.0425526.3086957-.0184825.3147826zm-3.0053333 0 .0124649-.4756522.0300877-.4691305.0610351-.4634782.0795176-.4565218.1040175-.4447826.1220702-.4382608.1465702-.4321739.1650526-.42.1831053-.4078261.2015877-.4013044.2260877-.3891304.2385526-.3704348.2561755-.363913.2686403-.352174.2931404-.3334782.3056052-.3208696.3176404-.3086956.3301052-.2904348.3477281-.2713044.3606228-.2595652.3726579-.2408695.384693-.222174.3971579-.203913.409193-.1852174.4152105-.1665217.4276754-.1421739.4397106-.1234783.4461579-.1047826.4521754-.0804348.4577632-.0617391.470228-.0369565.4702281-.0126087.4706579.0126087.4702281.0369565.4581929.0617391.4521755.0804348.4457281.1047826.4397105.1234783.4216579.1421739.421228.1665217.409193.1852174.3911404.203913.384693.222174.3786754.2408695.3606228.2595652.3421404.2713044.3356929.2904348.3176404.3086956.3051754.3208696.2935702.3334782.2686404.352174.2566052.363913.2381228.3704348.2260877.3891304.2015878.4013044.1831052.4078261.1650527.42.1465701.4321739.1220702.4382608.1040176.4447826.0790877.4565218.0614649.4634782.0305175.4691305.0120351.4756522-.0120351.4752173-.0305175.4691305-.0614649.4630435-.0790877.4569565-.1040176.4447826-.1220702.4382609-.1465701.4321739-.1650527.42-.1831052.4073913-.2015878.4013043-.2260877.3830435-.2381228.3765217-.2566052.3643479-.2686404.3460869-.2935702.3391305-.3051754.3213043-.3176404.3026087-.3356929.29-.3421404.2782609-.3606228.2591304-.3786754.2408696-.384693.2221739-.3911404.2034782-.409193.1856522-.421228.1604348-.4216579.1482609-.4397105.1234782-.4457281.1052174-.4521755.08-.4581929.0617392-.4702281.0308695-.4706579.0121739-.4702281-.0121739-.470228-.0308695-.4577632-.0617392-.4521754-.08-.4461579-.1052174-.4397106-.1234782-.4276754-.1482609-.4152105-.1604348-.409193-.1856522-.3971579-.2034782-.384693-.2221739-.3726579-.2408696-.3606228-.2591304-.3477281-.2782609-.3301052-.29-.3176404-.3026087-.3056052-.3213043-.2931404-.3391305-.2686403-.3460869-.2561755-.3643479-.2385526-.3765217-.2260877-.3830435-.2015877-.4013043-.1831053-.4073913-.1650526-.42-.1465702-.4321739-.1220702-.4382609-.1040175-.4447826-.0795176-.4569565-.0610351-.4630435-.0300877-.4691305zm21.4950965 2.2286956h11.9723333l.0180527.0126087.012035.0247826.0305176.1543478-.0060176 2.8895653-.0124649.1726087-.0240701.0434782-.0915527.0308696-11.8072807-.006087-.1345351-.0186956-.0305175-.0369566-.0060176-.0556521-.0245-.1604348.0120351-2.9269565.0124649-.0369566.0550176-.0804347zm15.8506403.4447826.061465-.0065217.1646228-.006087.1225-.0121739.1401228-.0186956.1590351-.0182609.1831052-.0308696.1891228-.0369565.2076053-.0434783.2200702-.0556521.2260877-.0678261.2381228-.0804348.2385526-.086087.2441404-.1052174.2445701-.1234782.2441404-.1356522.2381228-.1543478.2381228-.1730435.2260877-.1913043.2260878-.21.2076052-.2282609.1955702-.2534783.1831053-.2778261.1646228-.3026087.1530175-.3269565.1220702-.3521739.1040175-.3765217.0795176-.4078261.0550175-.4321739.0240702-.4691305-.0060176-.493913.0180527-.0373913.0550175-.0243478 3.1398684.0060869.0064474.0926087.0055877.2717391-.0055877.1913044-.0064474.2286956-.0184824.2591305-.0245.283913-.0361053.3091305-.0494298.3330434-.0670526.352174-.0795176.3643478-.1035877.3826087-.1220702.3830435-.1405526.3952173-.1710702.3952174-.1955702.3947826-.2196403.3956522-.2505877.3826087-.2871228.3765218-.3176404.3582608-.3481579.3456522-.3907105.3273913-.4276754.3026087-.4702281.2778261-.5136404.2530435-.5553333.2160869-.6047632.1791305-.6537631.1482608-.7023333.0986957-.7513334.0617391-.8123684.0065217-.0184825-.0065217-.036535-.0308696-.0240702-.067826v-.006087-2.6426087l.0055877-.0252174.0184825-.0365217zm-15.0447193-8.3417391.1525878-.0186957h9.7428333l.0859649.006087.0550176.073913.012035 3.18-.0184824.0739131-.0305176.0373913-.049.0121739-9.9624736.0186956-.0795176-.0430434-.0245-.0434783-.0240702-.1295652v-2.9208696-.1543478l.0365351-.0617391.0365351-.0247826zm37.4252544 3.8034782.0674825-.0065217.1955702-.0121739.3111929-.0308696.409193-.0556521.2381228-.0308696.2626228-.0434783.2750878-.0491304.2931403-.0556522.3056053-.0678261.3236579-.0804347.3296754-.08.3421404-.0991305.3481579-.1108695.3541754-.1173914.3606228-.1295652.3606228-.1482608.3597632-.1604348.3606228-.1730435.3546052-.1852174.3541755-.2034783.347728-.2226086.3365527-.2347827.3296754-.2591304.3116228-.2717391.3051755-.29.2871228-.3086957.2746579-.3334782.2505877-.346087.0305175-.0308696.0610351-.0247826.1035877-.0056521 4.221307-.0065218-.0124649.0369565-.0245.1113044-.0545877.1791304-.0799474.2343479-.0550175.1421739-.0606053.1482608-.0735.1604348-.0795175.1730435-.0855351.1852174-.1035877.1913043-.1100351.1978261-.1285175.21-.1341053.2095652-.1530175.216087-.1586053.2286956-.1770877.222174-.1955702.2286956-.2076053.2343478-.2196403.2286957-.2385527.2343478-.2566052.2286957-.2686404.2347826-.2871228.2282608-.311193.222174-.3240877.2226087-.3481579.2160869-.3606228.2095652-.3842631.2039131v5.933913h-3.939772l-.0184824-4.5630435-.098.0247826-.2806755.0739131-.4276754.1047826-.5557632.1173913-.3176403.0682609-.335693.0617391-.3485877.0556522-.3666404.0613043-.3782456.0495652-.3786754.0434783-.3851228.0304348-.384693.0247826-.0550175.0065217-.0550176-.0126087-.0429824-.0491304-.0180527-.0617391-.0124649-3.1678261.0064474-.0186957.0240702-.0860869.0369649-.0247826.1035877-.0247826zm-6.0166842-.833913-6.3218596.0065217.0245-3.1430434.0120351-.0682609.0184824-.0491304.0365351-.0247826.0184825-.006087 10.5182368-.0369565h.0369649l.0425526.0182608.0425527.0556522h-.0060176l.0060176.0495652.0064473.1356522v.21.2839131l-.0064473.3460869-.0245.3947826-.0180527.2165218-.0184824.2282608-.0305176.2347826-.0305175.2469566-.0365351.2530434-.0429824.2595653-.0485702.2591304-.0550176.2656522-.0670526.2717391-.0670526.2717391-.0859649.2713044-.0855351.2717391-.0975702.2717391-.1100351.2717392-.1160526.2652174-.1285176.2595652-.1401228.2595652-.147.2469565-.164193.2469565-.1715.2347826 3.7442018 4.8469566-4.1104123.0617391-1.8022544-2.3343478-.0055877-.006087-.0184824-.0060869-.0309474-.012174-.0365351-.0060869h-.0425526l-.0429825.0121739-.0245.006087-.0240702.0186956-.0245.0121739-.0245.0247826-.0550175.0491305-.1040175.0930434-.1525878.1295653-.2136228.1604347-.1285175.0865218-.1401228.0926087-.1530176.1052174-.1710701.0986956-.1831053.1047826-.1955702.1047826-.2076052.1113044-.2260878.1052174-.2381228.1108695-.2501579.1052174-.2630526.1047826-.2811053.0986957-.2931403.0926087-.311193.0926087-.3236579.0865217-.3361228.0804348-.3546053.0678261-.3662105.0617391-.3786754.0556522-.3971579.0430435-.409193.0369565-.4216579.0186956-.4397105.006087h-.4521755l-.0120351-.006087-.0064473-.0126086-.0180527-2.982174v-.0121739h.0795176l.2136228-.0186956.1525877-.0186957.1775176-.0243478.2011579-.0308696.2200701-.0373913.2441404-.0491304.2630526-.0556522.2746579-.0617391.2935702-.0739131.2991579-.0865217.3116228-.0991304.3172105-.1108696.3176404-.1173913.3236579-.1421739.3240877-.1478261.3176403-.1669565.3176404-.1791305.3056052-.2034782.2991579-.21.2871228-.2347826.2746579-.2530435.2566053-.2717391.2381228-.2904348.2200702-.3147826.1955702-.3334783.1706403-.3578261.1405526-.3769565.1160527-.4013043.0795175-.426087-.0060175-.0491304-.0305176-.0369566z" fill="#fefefe"/></g></svg>